<svg width="45" height="45" viewBox="0 0 45 45" fill="none" xmlns="http://www.w3.org/2000/svg">
<rect width="45" height="45" fill="#8E29FF"/>
<path d="M11.7567 16.4363C11.9737 16.1423 12.1847 15.8553 12.4307 15.6003C13.0927 14.9153 13.8787 14.4433 14.7897 14.1783C15.8897 13.8633 17.0107 13.8113 18.1417 13.8963C19.1677 13.9743 20.1417 14.2323 21.0507 14.7193C22.0377 15.2453 22.7487 16.0403 23.2447 17.0373C23.2577 17.0623 23.2707 17.0893 23.2837 17.1143C23.3347 17.1113 23.3437 17.0704 23.3597 17.0444C24.4087 15.3794 25.9257 14.4003 27.8387 14.0333C29.1667 13.7793 30.5027 13.8113 31.8127 14.1633C33.6957 14.6673 34.9227 15.9043 35.6267 17.6923C35.9367 18.4773 36.0687 19.3054 36.1997 20.1304C36.3457 21.0464 36.3837 21.9674 36.3837 22.8934C36.3757 25.8834 36.3757 28.8733 36.3837 31.8633C36.3837 32.3543 35.9837 32.7713 35.4857 32.7673C34.0967 32.7483 32.7107 32.7673 31.3217 32.7693C30.7147 32.7693 30.3537 32.3943 30.3747 31.7913C30.3807 31.6003 30.3767 31.4043 30.3767 31.2133C30.3767 28.3873 30.3807 25.5593 30.3737 22.7323C30.3707 21.9013 30.1817 21.1004 29.8187 20.3494C29.4447 19.5724 28.8057 19.1523 27.9657 18.9943C27.2407 18.8603 26.5517 18.9634 25.9037 19.2764C25.3687 19.5344 25.0017 19.9923 24.7067 20.5023C24.2677 21.2543 24.0837 22.0753 24.0817 22.9363C24.0727 25.9053 24.0727 28.8743 24.0837 31.8423C24.0857 32.3333 23.6717 32.7803 23.1517 32.7753C21.7787 32.7583 20.4067 32.7714 19.0327 32.7714C18.4117 32.7714 18.0677 32.4313 18.0677 31.8113C18.0677 28.8433 18.0707 25.8733 18.0657 22.9053C18.0647 22.1273 17.9497 21.3683 17.6617 20.6393C17.2637 19.6343 16.5117 19.1003 15.4577 18.9633C14.6437 18.8593 13.8907 19.0063 13.2207 19.5013C12.7207 19.8723 12.4297 20.3903 12.1957 20.9473C11.8577 21.7543 11.7267 22.5893 11.7297 23.4603C11.7427 26.2563 11.7347 29.0514 11.7347 31.8494C11.7347 32.4014 11.3697 32.7714 10.8247 32.7714C9.4657 32.7714 8.1097 32.7714 6.7507 32.7714C6.2007 32.7694 5.8637 32.4154 5.8637 31.8754C5.8517 28.7844 5.8557 25.6913 5.8577 22.6033C5.8577 20.1373 5.8637 17.6723 5.8657 15.2073C5.8657 15.0653 5.8557 14.9253 5.8997 14.7853C6.0277 14.3843 6.3207 14.1713 6.8087 14.1673C8.1757 14.1603 9.5437 14.1603 10.9127 14.1673C11.3747 14.1693 11.7297 14.5583 11.7347 15.0353C11.7387 15.4933 11.7367 15.9513 11.7387 16.4073C11.7367 16.4093 11.7407 16.4133 11.7567 16.4363Z" fill="#FEFDFE"/>
<path d="M8.7137 5.00035C10.7567 4.97335 12.4737 6.52434 12.5867 8.62034C12.6967 10.6753 11.0827 12.4723 9.0257 12.5863C6.9157 12.7043 5.1157 11.1093 5.0057 9.00834C4.8917 6.90034 6.5007 5.07235 8.7137 5.00035Z" fill="#FEFDFE"/>
</svg>
