<svg width="45" height="45" viewBox="0 0 45 45" fill="none" xmlns="http://www.w3.org/2000/svg">
<rect width="45" height="45" fill="#8E29FF"/>
<path d="M12.7567 17.4363C12.9737 17.1423 13.1847 16.8553 13.4307 16.6003C14.0927 15.9153 14.8787 15.4433 15.7897 15.1783C16.8897 14.8633 18.0107 14.8113 19.1417 14.8963C20.1677 14.9743 21.1417 15.2323 22.0507 15.7193C23.0377 16.2453 23.7487 17.0403 24.2447 18.0373C24.2577 18.0623 24.2707 18.0893 24.2837 18.1143C24.3347 18.1113 24.3437 18.0704 24.3597 18.0444C25.4087 16.3794 26.9257 15.4003 28.8387 15.0333C30.1667 14.7793 31.5027 14.8113 32.8127 15.1633C34.6957 15.6673 35.9227 16.9043 36.6267 18.6923C36.9367 19.4773 37.0687 20.3054 37.1997 21.1304C37.3457 22.0464 37.3837 22.9674 37.3837 23.8934C37.3757 26.8834 37.3757 29.8733 37.3837 32.8633C37.3837 33.3543 36.9837 33.7713 36.4857 33.7673C35.0967 33.7483 33.7107 33.7673 32.3217 33.7693C31.7147 33.7693 31.3537 33.3943 31.3747 32.7913C31.3807 32.6003 31.3767 32.4043 31.3767 32.2133C31.3767 29.3873 31.3807 26.5593 31.3737 23.7323C31.3707 22.9013 31.1817 22.1004 30.8187 21.3494C30.4447 20.5724 29.8057 20.1523 28.9657 19.9943C28.2407 19.8603 27.5517 19.9634 26.9037 20.2764C26.3687 20.5344 26.0017 20.9923 25.7067 21.5023C25.2677 22.2543 25.0837 23.0753 25.0817 23.9363C25.0727 26.9053 25.0727 29.8743 25.0837 32.8423C25.0857 33.3333 24.6717 33.7803 24.1517 33.7753C22.7787 33.7583 21.4067 33.7714 20.0327 33.7714C19.4117 33.7714 19.0677 33.4313 19.0677 32.8113C19.0677 29.8433 19.0707 26.8733 19.0657 23.9053C19.0647 23.1273 18.9497 22.3683 18.6617 21.6393C18.2637 20.6343 17.5117 20.1003 16.4577 19.9633C15.6437 19.8593 14.8907 20.0063 14.2207 20.5013C13.7207 20.8723 13.4297 21.3903 13.1957 21.9473C12.8577 22.7543 12.7267 23.5893 12.7297 24.4603C12.7427 27.2563 12.7347 30.0514 12.7347 32.8494C12.7347 33.4014 12.3697 33.7714 11.8247 33.7714C10.4657 33.7714 9.1097 33.7714 7.7507 33.7714C7.2007 33.7694 6.8637 33.4154 6.8637 32.8754C6.8517 29.7844 6.8557 26.6913 6.8577 23.6033C6.8577 21.1373 6.8637 18.6723 6.8657 16.2073C6.8657 16.0653 6.8557 15.9253 6.8997 15.7853C7.0277 15.3843 7.3207 15.1713 7.8087 15.1673C9.1757 15.1603 10.5437 15.1603 11.9127 15.1673C12.3747 15.1693 12.7297 15.5583 12.7347 16.0353C12.7387 16.4933 12.7367 16.9513 12.7387 17.4073C12.7367 17.4093 12.7407 17.4133 12.7567 17.4363Z" fill="#FEFDFE"/>
<path d="M9.7137 6.00035C11.7567 5.97335 13.4737 7.52434 13.5867 9.62034C13.6967 11.6753 12.0827 13.4723 10.0257 13.5863C7.9157 13.7043 6.1157 12.1093 6.0057 10.0083C5.8917 7.90034 7.5007 6.07235 9.7137 6.00035Z" fill="#FEFDFE"/>
</svg>
