<svg width="32" height="28" viewBox="0 0 32 28" fill="none" xmlns="http://www.w3.org/2000/svg">
<path d="M6.7567 11.4363C6.9737 11.1423 7.1847 10.8553 7.4307 10.6003C8.0927 9.91533 8.8787 9.44333 9.7897 9.17833C10.8897 8.86333 12.0107 8.81135 13.1417 8.89635C14.1677 8.97435 15.1417 9.23235 16.0507 9.71935C17.0377 10.2453 17.7487 11.0403 18.2447 12.0373C18.2577 12.0623 18.2707 12.0893 18.2837 12.1143C18.3347 12.1113 18.3437 12.0704 18.3597 12.0444C19.4087 10.3794 20.9257 9.40031 22.8387 9.03331C24.1667 8.77931 25.5027 8.81132 26.8127 9.16332C28.6957 9.66732 29.9227 10.9043 30.6267 12.6923C30.9367 13.4773 31.0687 14.3054 31.1997 15.1304C31.3457 16.0464 31.3837 16.9674 31.3837 17.8934C31.3757 20.8834 31.3757 23.8733 31.3837 26.8633C31.3837 27.3543 30.9837 27.7713 30.4857 27.7673C29.0967 27.7483 27.7107 27.7673 26.3217 27.7693C25.7147 27.7693 25.3537 27.3943 25.3747 26.7913C25.3807 26.6003 25.3767 26.4043 25.3767 26.2133C25.3767 23.3873 25.3807 20.5593 25.3737 17.7323C25.3707 16.9013 25.1817 16.1004 24.8187 15.3494C24.4447 14.5724 23.8057 14.1523 22.9657 13.9943C22.2407 13.8603 21.5517 13.9634 20.9037 14.2764C20.3687 14.5344 20.0017 14.9923 19.7067 15.5023C19.2677 16.2543 19.0837 17.0753 19.0817 17.9363C19.0727 20.9053 19.0727 23.8743 19.0837 26.8423C19.0857 27.3333 18.6717 27.7803 18.1517 27.7753C16.7787 27.7583 15.4067 27.7714 14.0327 27.7714C13.4117 27.7714 13.0677 27.4313 13.0677 26.8113C13.0677 23.8433 13.0707 20.8733 13.0657 17.9053C13.0647 17.1273 12.9497 16.3683 12.6617 15.6393C12.2637 14.6343 11.5117 14.1003 10.4577 13.9633C9.6437 13.8593 8.8907 14.0063 8.2207 14.5013C7.7207 14.8723 7.4297 15.3903 7.1957 15.9473C6.8577 16.7543 6.7267 17.5893 6.7297 18.4603C6.7427 21.2563 6.7347 24.0514 6.7347 26.8494C6.7347 27.4014 6.3697 27.7714 5.8247 27.7714C4.4657 27.7714 3.1097 27.7714 1.7507 27.7714C1.2007 27.7694 0.863697 27.4154 0.863697 26.8754C0.851697 23.7844 0.855697 20.6913 0.857697 17.6033C0.857697 15.1373 0.8637 12.6723 0.8657 10.2073C0.8657 10.0653 0.855696 9.92533 0.899696 9.78533C1.0277 9.38433 1.3207 9.17135 1.8087 9.16735C3.1757 9.16035 4.5437 9.16035 5.9127 9.16735C6.3747 9.16935 6.7297 9.55833 6.7347 10.0353C6.7387 10.4933 6.7367 10.9513 6.7387 11.4073C6.7367 11.4093 6.7407 11.4133 6.7567 11.4363Z" fill="#FEFDFE"/>
<path d="M3.7137 0.000347134C5.7567 -0.0266529 7.4737 1.52434 7.5867 3.62034C7.6967 5.67534 6.0827 7.47235 4.0257 7.58635C1.9157 7.70435 0.115698 6.10934 0.00569817 4.00834C-0.108302 1.90034 1.5007 0.0723471 3.7137 0.000347134Z" fill="#FEFDFE"/>
</svg>
