<svg width="22" height="22" viewBox="0 0 22 22" fill="none" xmlns="http://www.w3.org/2000/svg">
<path d="M20.8392 11.0001C20.8392 16.4341 16.434 20.8393 10.9999 20.8393C5.56584 20.8393 1.16064 16.4341 1.16064 11.0001C1.16064 5.56597 5.56584 1.16077 10.9999 1.16077C16.434 1.16077 20.8392 5.56597 20.8392 11.0001Z" stroke="white" stroke-width="0.75"/>
<path d="M10.8747 12.9368C10.8747 13.413 10.7512 13.8409 10.5041 14.2205C10.2606 14.6 9.90253 14.8972 9.42987 15.1121C8.95722 15.3269 8.39683 15.4343 7.74872 15.4343C6.9717 15.4343 6.33075 15.2875 5.82587 14.9939C5.4678 14.7826 5.17597 14.5015 4.95038 14.1506C4.72838 13.7961 4.61737 13.4524 4.61737 13.1194C4.61737 12.926 4.68362 12.7613 4.8161 12.6252C4.95217 12.4856 5.12405 12.4158 5.33173 12.4158C5.50002 12.4158 5.64146 12.4695 5.75605 12.5769C5.87421 12.6843 5.97447 12.8437 6.05683 13.0549C6.15709 13.3056 6.26451 13.5151 6.37909 13.6833C6.49726 13.8516 6.66197 13.9913 6.87323 14.1023C7.0845 14.2097 7.362 14.2634 7.70575 14.2634C8.17841 14.2634 8.56155 14.1542 8.85517 13.9358C9.15237 13.7138 9.30097 13.4381 9.30097 13.1086C9.30097 12.8472 9.2204 12.636 9.05927 12.4749C8.90172 12.3101 8.69582 12.1848 8.44159 12.0989C8.19094 12.0129 7.85435 11.9216 7.43183 11.825C6.86607 11.6925 6.39163 11.5385 6.00849 11.363C5.62893 11.184 5.32636 10.9423 5.10077 10.6379C4.87877 10.33 4.76776 9.94865 4.76776 9.4939C4.76776 9.06063 4.88593 8.6757 5.12226 8.33911C5.35858 8.00252 5.70054 7.74471 6.14814 7.56567C6.59573 7.38306 7.12209 7.29175 7.72724 7.29175C8.21064 7.29175 8.62779 7.35262 8.9787 7.47437C9.33319 7.59253 9.62681 7.75187 9.85956 7.95239C10.0923 8.14933 10.2624 8.35701 10.3698 8.57544C10.4772 8.79386 10.5309 9.00692 10.5309 9.2146C10.5309 9.40438 10.4629 9.57625 10.3268 9.73022C10.1944 9.88062 10.0279 9.95581 9.82733 9.95581C9.64472 9.95581 9.50507 9.91105 9.40839 9.82153C9.31529 9.72843 9.21324 9.57804 9.10224 9.37036C8.95901 9.07316 8.78713 8.8422 8.58661 8.67749C8.38609 8.5092 8.06383 8.42505 7.61982 8.42505C7.20803 8.42505 6.87502 8.51636 6.62079 8.69897C6.37014 8.87801 6.24482 9.09465 6.24482 9.34888C6.24482 9.50643 6.28778 9.6425 6.37372 9.75708C6.45966 9.87166 6.57782 9.97013 6.72821 10.0525C6.8786 10.1348 7.03079 10.1993 7.18476 10.2458C7.33873 10.2924 7.59296 10.3604 7.94745 10.45C8.39146 10.5538 8.7925 10.6684 9.15058 10.7937C9.51223 10.919 9.81838 11.0712 10.069 11.2502C10.3233 11.4293 10.5202 11.6567 10.6599 11.9324C10.8031 12.2045 10.8747 12.5393 10.8747 12.9368ZM14.6733 14.5642V9.67651C13.7638 10.3748 13.1515 10.7239 12.8364 10.7239C12.686 10.7239 12.5517 10.6648 12.4336 10.5466C12.319 10.4249 12.2617 10.2852 12.2617 10.1277C12.2617 9.94507 12.319 9.81079 12.4336 9.72485C12.5482 9.63892 12.7505 9.52791 13.0405 9.39185C13.4738 9.18774 13.8193 8.9729 14.0771 8.74731C14.3385 8.52173 14.5695 8.26929 14.77 7.98999C14.9705 7.71069 15.1012 7.53882 15.1621 7.47437C15.223 7.40991 15.3376 7.37769 15.5058 7.37769C15.6956 7.37769 15.8478 7.45109 15.9624 7.5979C16.077 7.74471 16.1343 7.94702 16.1343 8.20483V14.3547C16.1343 15.0745 15.889 15.4343 15.3984 15.4343C15.18 15.4343 15.0045 15.3609 14.8721 15.2141C14.7396 15.0673 14.6733 14.8507 14.6733 14.5642Z" fill="white"/>
</svg>
